<?xml version="1.0" encoding="utf-8"?>
<!-- Generator: Adobe Illustrator 23.1.1, SVG Export Plug-In . SVG Version: 6.00 Build 0)  -->
<svg version="1.1" id="Layer_1" xmlns="http://www.w3.org/2000/svg" xmlns:xlink="http://www.w3.org/1999/xlink" x="0px" y="0px"
	 viewBox="0 0 400 400" style="enable-background:new 0 0 400 400;" xml:space="preserve">
<style type="text/css">
	.st0{enable-background:new    ;}
	.st1{fill:none;stroke:#000000;stroke-width:10;stroke-linejoin:round;stroke-miterlimit:10;}
	.st2{fill:none;stroke:#000000;stroke-width:20;stroke-linecap:round;stroke-linejoin:round;stroke-miterlimit:10;}
	.st3{fill:none;stroke:#000000;stroke-width:25;stroke-linecap:round;stroke-linejoin:round;stroke-miterlimit:10;}
</style>
<g class="st0">
	<path d="M225.8,65.6l2.5-11.1h26.5l-15.2,71.9c-1,4.6-1.4,7.6-1.4,9c0,1.5,0.4,2.8,1.2,3.6s1.7,1.3,2.8,1.3c3.6,0,8.2-2.4,14-7.1
		c5.7-4.7,10.7-11.1,15-19.3c4.3-8.1,6.4-17,6.4-26.6c0-8-1.5-15.6-4.6-22.7c-3-7.1-7.5-13.3-13.2-18.5c-5.8-5.2-12.8-9.3-21.3-12.2
		c-8.5-3-18.1-4.4-28.8-4.4c-10.9,0-20.9,1.4-30.1,4.3c-9.1,2.9-17.1,7-24,12.2c-6.8,5.4-12.6,11.9-17.2,19.7
		c-4.1,6.8-7.2,14.3-9.3,22.7c-2.1,8.3-3.2,16.8-3.2,25.4c0,11.6,2.2,22,6.8,31.6c4.6,9.5,11.2,17.6,20,24
		c8.8,6.4,19.3,11,31.7,13.8c12.4,2.7,26.3,3.2,42,1.6c12.4-1.5,22.9-4.3,31.5-8.5c8.6-4.2,15.8-10,21.8-17.4h21.4
		c-3.5,7.2-8,13.6-13.6,19.2c-5.6,5.7-12.1,10.4-19.6,14.2c-7.5,3.9-15.9,6.7-25.1,8.8c-9.3,2-19.5,3-30.4,3
		c-16.5,0-31.2-2.1-44.5-6.5c-13.2-4.3-24.3-10.6-33.3-18.7s-15.8-17.9-20.4-29.1c-4.6-11.2-7-23.8-7-37.3c0-14.2,2.4-27.6,7.2-39.9
		c4.7-12.4,11.6-23.1,20.5-32.3c9-9.1,19.8-16.3,32.7-21.4c12.8-5.1,27.1-7.7,42.6-7.7c12.7,0,24.4,1.8,35,5.6s19.7,9.1,27.3,16.1
		c7.6,7,13.4,15.2,17.3,24.7s6,20,6,31.6c0,9-1.6,17.8-4.8,26.3c-3.2,8.6-7.8,16.4-13.8,23.2c-6,6.8-13.1,12.3-21.1,16.3
		c-8.1,4-16.8,6-26.2,6c-5.5,0-9.6-1-12.6-2.8c-3-1.8-5-4.8-6-8.8c-5.8,5.8-12.5,9.4-20.1,10.9c-7.6,1.5-14.9,0.9-21.9-2.1
		c-7.1-2.9-12.8-7.8-17.2-14.7c-4.4-6.8-6.5-15.4-6.5-25.5c0-10.5,2.2-20.9,6.7-31c4.5-10.2,10.9-18.5,19.3-25s17.8-9.7,28.3-9.7
		C211.3,52,220.2,56.5,225.8,65.6z M170.9,117.6c0,8,1.7,14.2,5,18.5c3.3,4.3,7.7,6.4,13.2,6.4c6.3,0,11.9-2.5,16.6-7.5
		c4.8-5,8.5-11.3,10.9-19c2.5-7.7,3.7-15.1,3.7-22.3c0-3.5-0.4-6.7-1.3-9.6c-0.9-2.9-2-5.4-3.7-7.5c-1.6-2.1-3.6-3.7-5.9-4.8
		c-2.4-1.1-4.9-1.6-7.9-1.6c-5.9,0-11.2,2.2-15.9,6.8c-4.7,4.6-8.3,10.6-10.9,17.9C172.2,102.2,170.9,109.7,170.9,117.6z"/>
</g>
<path class="st1" d="M77.3,118.1"/>
<polyline class="st2" points="84.9,118.1 19.6,118.1 19.6,377 380.4,377 380.4,118.1 327.2,118.1 "/>
<polyline class="st3" points="25.6,124.9 194.5,313.9 372.4,126.6 "/>
</svg>
