<?xml version="1.0" encoding="utf-8"?>
<!-- Generator: Adobe Illustrator 24.0.0, SVG Export Plug-In . SVG Version: 6.00 Build 0)  -->
<svg version="1.1" id="Layer_1" xmlns="http://www.w3.org/2000/svg" xmlns:xlink="http://www.w3.org/1999/xlink" x="0px" y="0px"
	 viewBox="0 0 360 360" style="enable-background:new 0 0 360 360;" xml:space="preserve">
<style type="text/css">
	.st0{fill:#475993;}
	.st1{fill:#FFFFFF;}
</style>
<g>
	<path class="st0" d="M348,179.1c0,13.3-1.6,26.3-4.5,38.8c-13.7,57.8-57.2,104.1-113.5,121.7c0,0,0,0,0,0c-0.2,0-0.3,0.1-0.5,0.1
		c-3.6,1.1-7.2,2.1-10.8,3h0c-12.4,2.9-25.3,4.5-38.6,4.5h-0.1c-13.1,0-25.9-1.5-38.2-4.4c-62-14.5-110.8-63.3-125.3-125.2
		c-2.9-12.3-4.4-25.2-4.4-38.4s1.5-26,4.4-38.4c14.5-62,63.3-110.9,125.4-125.3c12.3-2.8,25-4.4,38.2-4.4s25.9,1.5,38.2,4.4
		c61.9,14.4,110.7,63,125.3,124.8C346.4,152.8,348,165.8,348,179.1z"/>
	<g>
		<path class="st0" d="M343.5,140.3v77.6c-13.7,57.8-57.2,104.1-113.5,121.7c0,0,0,0,0,0c-0.2,0-0.3,0.1-0.5,0.1V225.4h8.3
			c10.2,0,20.3-0.1,30.5,0c4.7,0.1,7.8-1.9,8.4-6.6c1.6-12.4,3.1-24.8,4.4-37.2c0.3-2.9-0.8-5.2-2.9-6.6c-0.1,0-0.1-0.1-0.2-0.1
			c0,0,0,0,0,0c-1.4-0.9-3.3-1.3-5.5-1.3c-12.5-0.1-25,0-37.5,0h-5.5c0-13.4-0.6-26.4,0.2-39.3c0.6-9.6,7.1-15.1,17-15.8
			c7.8-0.6,15.6-0.3,23.5-0.5c7.2-0.1,9.3-2.2,9.3-9.2v-29c0-3-1-5.5-3-6.6c0,0-0.1,0-0.1,0c-0.8-0.4-1.6-0.6-2.7-0.6
			c-14.7-0.1-29.5-1.2-43.9,0.8c-31.4,4.4-49.8,25.9-51.2,58c-0.5,12.2-0.2,24.3-0.2,36.5v5.9h-27.3c-7.8,0-10.3,2.3-10.2,10.1
			c0,11.3,0.2,22.7,0.4,34c0.1,3.8,1.3,6.1,4,7.1c0,0,0,0,0,0c1.1,0.4,2.4,0.6,4,0.7c9.5,0.1,19,0,28.8,0v116.8
			c-0.9,0.2-1.3,0.3-1.8,0.3c-11.6,0-23.2,0-34.7,0c-62-14.5-110.8-63.3-125.3-125.2v-76.7c14.5-62,63.3-110.9,125.4-125.3h76.4
			C280.1,29.9,328.9,78.5,343.5,140.3z"/>
		<path class="st1" d="M281.6,181.9c-1.3,12.4-2.8,24.8-4.4,37.2c-0.6,4.8-3.7,6.7-8.4,6.6c-10.2-0.1-20.3,0-30.5,0H230l0,113.9
			c-0.2,0-0.3,0.1-0.5,0.1c-3.6,1.1-7.2,2.1-10.8,3h0c-12.4,2.9-25.3,4.5-38.6,4.5h-0.1l-1.3-121.4h-28.8c-1.8,0-3.3-0.2-4.4-0.8
			c0,0,0,0,0,0c-2.5-1.1-3.6-3.4-3.6-7c-0.2-11.3-0.4-22.6-0.4-34c0-7.8,2.4-10.1,10.2-10.1h27.3V168c0-12.2-0.3-24.3,0.2-36.5
			c1.5-32.1,19.9-53.7,51.2-58c14.4-2,29.3-0.9,43.9-0.8c0.9,0,1.6,0.1,2.3,0.4c0,0,0.1,0,0.1,0c2.4,1,3.4,3.7,3.4,6.8v29
			c0,7-2.2,9.1-9.3,9.2c-7.8,0.1-15.7-0.1-23.5,0.5c-9.9,0.7-16.3,6.2-17,15.8c-0.8,12.8-0.2,25.8-0.2,39.1v0.2h5.5
			c12.5,0,25-0.1,37.5,0c2,0,3.8,0.4,5.1,1.1c0,0,0,0,0,0c0.1,0,0.1,0.1,0.2,0.1C280.7,176.4,281.9,178.7,281.6,181.9z"/>
	</g>
</g>
</svg>
