<?xml version="1.0" encoding="utf-8"?>
<!-- Generator: Adobe Illustrator 23.1.1, SVG Export Plug-In . SVG Version: 6.00 Build 0)  -->
<svg version="1.1" id="Layer_1" xmlns="http://www.w3.org/2000/svg" xmlns:xlink="http://www.w3.org/1999/xlink" x="0px" y="0px"
	 viewBox="0 0 360 360" style="enable-background:new 0 0 360 360;" xml:space="preserve">
<style type="text/css">
	.st0{fill:#475993;}
	.st1{fill:#FFFFFF;}
</style>
<g>
	<path class="st0" d="M343.5,101.5c0,65,0,130,0,195c0,23.7-14.2,41.2-36.7,45.5c-0.8,0.1-1.6,0.4-2.5,0.4c-24.8,0-49.6,0-74.8,0
		v-117h8.3c10.2,0,20.3-0.1,30.5,0c4.7,0.1,7.8-1.9,8.4-6.6c1.6-12.4,3.1-24.8,4.4-37.2c0.5-5-2.9-8-8.6-8c-12.5-0.1-25,0-37.5,0
		h-5.5c0-13.4-0.6-26.4,0.2-39.3c0.6-9.6,7.1-15.1,17-15.8c7.8-0.6,15.6-0.3,23.5-0.5c7.2-0.1,9.3-2.2,9.3-9.2c0-9.7,0-19.3,0-29
		c0-4.1-1.8-7.3-5.8-7.3c-14.7-0.1-29.5-1.2-43.9,0.8c-31.4,4.4-49.8,25.9-51.2,58c-0.5,12.2-0.2,24.3-0.2,36.5v5.9
		c-9.4,0-18.4,0-27.3,0c-7.8,0-10.3,2.3-10.2,10.1c0,11.3,0.2,22.7,0.4,34c0.1,5.4,2.6,7.7,8.1,7.8c9.5,0.1,19,0,28.8,0v116.8
		c-0.9,0.2-1.3,0.3-1.8,0.3c-39.2,0-78.3,0.3-117.5-0.2c-24.2-0.3-42.5-19.9-42.5-44c0-79.7,0-159.4,0-239c0-24.7,19.3-44,44.1-44
		c79.7,0,159.3,0,239,0c24.1,0,43.3,18.4,44,42.6C343.8,72.4,343.5,87,343.5,101.5z"/>
	<path class="st1" d="M281.6,181.9c-1.3,12.4-2.8,24.8-4.4,37.2c-0.6,4.8-3.7,6.7-8.4,6.6c-10.2-0.1-20.3,0-30.5,0h-8.3v117
		l-51.4-0.1V225.7c-9.8,0-19.3,0-28.8,0c-5.6,0-8-2.4-8.1-7.8c-0.2-11.3-0.4-22.6-0.4-34c0-7.8,2.4-10.1,10.2-10.1
		c9,0,17.9,0,27.3,0V168c0-12.2-0.3-24.3,0.2-36.5c1.5-32.1,19.9-53.7,51.2-58c14.4-2,29.3-0.9,43.9-0.8c4.1,0,5.8,3.3,5.8,7.3
		c0,9.7,0,19.3,0,29c0,7-2.2,9.1-9.3,9.2c-7.8,0.1-15.7-0.1-23.5,0.5c-9.9,0.7-16.3,6.2-17,15.8c-0.8,12.9-0.2,25.9-0.2,39.3h5.5
		c12.5,0,25-0.1,37.5,0C278.7,173.9,282.1,176.9,281.6,181.9z"/>
</g>
</svg>
