<?xml version="1.0" encoding="utf-8"?>
<!-- Generator: Adobe Illustrator 23.1.1, SVG Export Plug-In . SVG Version: 6.00 Build 0)  -->
<svg version="1.1" id="Layer_1" xmlns="http://www.w3.org/2000/svg" xmlns:xlink="http://www.w3.org/1999/xlink" x="0px" y="0px"
	 viewBox="0 0 50 50" style="enable-background:new 0 0 50 50;" xml:space="preserve">
<g>
	<path d="M35.1,48.5c-0.7,0-1.4-0.3-2-0.8L12.7,27.3c-1.1-1.1-1.1-2.8-0.1-3.9l0.1,0l0.1-0.1c0-0.1,0.1-0.2,0.2-0.3L33.8,2.3
		c0.5-0.5,1.2-0.8,2-0.8c0.7,0,1.4,0.3,2,0.8c1.1,1.1,1.1,2.8,0,3.9L18.6,25.3L37,43.8c1.1,1.1,1.1,2.8,0,3.9
		C36.5,48.2,35.8,48.5,35.1,48.5z"/>
	<path d="M35.7,2c0.6,0,1.2,0.2,1.6,0.7c0.9,0.9,0.9,2.3,0,3.2L18.6,24.6l-0.7,0.7l0.7,0.7l18.1,18.1c0.9,0.9,0.9,2.3,0,3.2
		c-0.4,0.4-1,0.7-1.6,0.7c-0.6,0-1.2-0.2-1.6-0.7L13.1,27c-0.8-0.8-0.9-2.2-0.1-3.1l0.1-0.1l0.1-0.2c0,0,0.1-0.1,0.1-0.2L34.1,2.6
		C34.6,2.2,35.1,2,35.7,2 M35.7,1c-0.8,0-1.7,0.3-2.3,0.9L12.7,22.7c-0.1,0.1-0.2,0.2-0.3,0.4l0,0c-1.3,1.3-1.3,3.3,0,4.6l20.4,20.4
		c0.6,0.6,1.5,1,2.3,1c0.8,0,1.7-0.3,2.3-1c1.3-1.3,1.3-3.3,0-4.6L19.3,25.3L38.1,6.5c1.3-1.3,1.3-3.3,0-4.6C37.4,1.3,36.6,1,35.7,1
		L35.7,1z"/>
</g>
</svg>
