<?xml version="1.0" encoding="utf-8"?>
<!-- Generator: Adobe Illustrator 23.1.1, SVG Export Plug-In . SVG Version: 6.00 Build 0)  -->
<svg version="1.1" id="Layer_1" xmlns="http://www.w3.org/2000/svg" xmlns:xlink="http://www.w3.org/1999/xlink" x="0px" y="0px"
	 viewBox="0 0 1280 1024" style="enable-background:new 0 0 1280 1024;" xml:space="preserve">
<style type="text/css">
	.st0{fill:#801515;}
	.st1{fill:#FCEE21;}
	.st2{fill:#006837;}
	.st3{enable-background:new    ;}
</style>
<ellipse class="st0" cx="640" cy="508.1" rx="643.7" ry="491"/>
<g>
	<path class="st1" d="M467,429.1c-0.2,0.1-0.3,0.2-0.5,0.3c0.1-0.1,0.2-0.3,0.4-0.4l0,0L467,429.1C467,429,467,429.1,467,429.1z"/>
	<path class="st1" d="M467,429C467,429,467,429.1,467,429C467,429.1,467,429.1,467,429C467,429.1,467,429,467,429
		c-0.1,0-0.1,0-0.1,0l0,0C467,429,467,429,467,429z"/>
	<path class="st1" d="M347,468.8c-5.4,4.9-14.4,3.3-19.2,8.7c-7.8,8.8-13.1,21.3-19.9,31.7c-8.6,13.1-17.2,26.4-26.9,38
		c-7.4,8.8-16.6,15-24.9,22.4c-0.6,0.6-1.3,1.8-1.8,1.7c-0.6-0.2-1.6-1.9-1.5-2.2c2-4.9,3.4-11,6.4-14.1
		c7.9-7.9,16.6-14.3,24.8-21.6c0.7-0.7,0.6-3.9,0.2-5.7c-0.2-1-1.8-2.3-2.6-2.2c-1.3,0.2-2.5,1.5-3.8,2.5
		c-5.5,4.1-10.9,8.4-16.4,12.3c-0.6,0.4-2.4-1.3-3-2.6c-0.4-0.8,0.1-3.3,0.7-3.7c8.4-6.1,17.3-11,25.2-18.1
		c5.8-5.2,10.3-12.9,15.3-19.8c3-4.2,6.3-8.4,8.4-13.3c1-2.4-0.4-6.6-0.7-9.9c0.8,0.1,2-0.2,2.3,0.4c0.5,0.9,0.4,2.4,0.6,3.6
		c1.8-2.9,3.7-5.8,5.5-8.8c-0.8-0.9-1.6-1.7-2.4-2.6c6.7-12,13.4-23.9,20.2-35.8c0.3-0.5,2.5,0.1,2.5,0.4c0.2,2.9,1.1,6.7,0,8.7
		c-2,4-5.5,6.6-7.5,10.6c-1.1,2.2-0.1,6-0.1,9.1c0.5-2,0.9-4.2,1.6-6.1c0.5-1.4,1.5-2.5,2.2-3.7c0.8,1.2,2.1,2.2,2.4,3.6
		c0.6,3.4,0.7,6.9,1,10.4c1.7-3.2,3-7.2,5.2-9.6c3.4-3.6,7.5-6.2,11.5-8.8c0.3-0.2,3,4,2.7,5C352.7,456.1,351.1,465,347,468.8z"/>
	<path class="st1" d="M220.5,487.8c-6.3,6.5-11.2,15.6-17.8,21.5c-10.6,9.6-22,17.6-33.2,26.1c-0.4,0.3-2.3-1.4-2.5-2.6
		c-0.3-1.4-0.1-4.1,0.6-4.7c15.3-13.3,31.5-25,45.9-39.9c11-11.4,19.7-26.7,29.6-40c1.1-1.5,3.7-0.9,5.3-2c1.9-1.1,3.5-2.9,5.2-4.6
		c0.3-0.3,0.2-1.4,0.2-2.1c-1.6,0.3-3.1,0.9-4.7,1c-1.5,0-3.7,0.2-4.3-0.9c-1.3-2.5-2.3-5.7-2.3-8.6c0-3.6,1-7.2,1.7-10.9
		c-4.1,1.8-9,2.3-12.2,5.6c-4.7,4.8-8.2,11.6-12,17.9c-0.2,0.4,2.3,3.1,2.8,5.1c0.5,2.4,0.5,7.1-0.1,7.4c-10.2,4.3-20.5,8-30.7,11.9
		c-1.5,0.6-4.1,0.9-4.4,2.1c-0.6,2.5-0.3,5.6,0.3,8.2c0.5,2.1,2,3.9,3,5.8c-4.3,2.6-8.8,4.6-12.7,7.8c-10.4,8.6-20.4,18-30.7,26.6
		c-7.4,6.2-15,12-22.7,17.8c-2.9,2.1-6.1,3.4-9.1,5.1c0.5-2.9,0.4-7.2,1.8-8.5c6.7-6.4,13.9-11.9,20.9-17.8c8.2-7,16.3-14,24.4-21.1
		c0.2-0.2,0-1.9-0.4-2.1c-2.2-1.7-4.6-3.2-6.9-4.8c4.5-1.7,9.1-3.2,13.6-5c2.3-0.9,4.6-2.2,6.9-3.3c-0.8-1.9-2.5-4.8-2.1-5.4
		c3.3-5.8,6.6-12,10.9-16.4c3.1-3.2,7.5-4,11.4-5.9c-1.6-1.8-3.2-4.9-4.9-5c-5.1-0.5-10.3,0.5-15.4,0.1c-1.4-0.1-3.3-4.8-3.8-4.4
		c-6.8,4.8-13.5,10-20.1,15.3c-9.4,7.5-19,14.5-27.9,22.9c-5.2,4.9-8.9,12.7-14,17.8c-3.8,3.8-8.8,5.6-13.3,7.9
		c-2.3,1.2-4.8,1.4-7.2,2c4.5-5.7,8.9-11.4,13.5-17c4.6-5.8,9.3-11.5,13.9-17.2c1.1-1.4,2.3-2.6,3.5-3.9c0.3,0.5,0.6,1,0.8,1.5
		c7.5-6.3,17.5-10.5,21.8-19.5c7.5-15.3,37.9-23.1,50.9-14.8c6.7,4.2,18.4-2,26.7-6.8c11.6-6.8,21.8-17.4,33.2-25
		c11.2-7.5,22.7-17.1,34.7-19c11-1.7,22.8,5.8,34.3,9c9,2.5,18.6,2.7,27,7c7.9,4.1,14.2,13.6,22,18.5c11,6.9,22.8,11.8,34.2,17.6
		c0.9,0.5,1.7,1,2.6,1.5c-0.6,1.6-1,3.4-1.8,4.7c-0.4,0.6-1.7,0.7-2.4,0.4c-11.6-4.9-23.3-9.4-34.6-15.1c-3-1.5-4.6-8.4-7.5-9.6
		c-14.7-6-29.6-11.5-44.6-16c-11.1-3.4-22.7-7.3-33.8-6.4c-5.1,0.4-9.7,11.9-14.6,18.4c-0.6,0.8-1.1,2.3-1.5,2.3
		c-1.3-0.1-2.6-0.8-3.8-1.5c-0.6-0.3-1.1-1.7-1.5-1.6c-3,1.2-6,2.6-9,3.9c1.2,0.6,2.4,1.7,3.7,1.8c6,0.2,12.1,0,18.1,0.4
		c1.1,0.1,3.2,3.1,3.1,3.4c-1.8,4.1-3.3,9-6.1,11.8C255,453.5,237.5,470.2,220.5,487.8z"/>
	<path class="st1" d="M413.2,453.3c-0.6-2.4-1.3-4.8-2-7.2c1.7,0,3.4,0,5.1-0.1c9.5-0.8,19.3,0,28.5-2.9c7.6-2.4,14.5-9,21.7-13.8
		c-6.3,7.1-12,15.9-19.3,20.8c-16.1,10.8-32.7,20-49.5,28.7c-8.3,4.3-17.6,5.5-26.1,9.3c-4.6,2.1-8.3,7.5-12.8,10.3
		c-2.3,1.4-5.4,0.4-8.1,0.5c2.6-2.2,5.1-4.7,7.9-6.5c10.9-6.9,21.7-13.8,32.8-20.2c7-4.1,14.4-7.1,21.6-10.8c0.6-0.3,1.5-1.4,1.5-2
		C414.2,457.4,413.7,455.4,413.2,453.3z"/>
	<path class="st1" d="M467,429c0.5-1.6,0.9-4.5,1.4-4.5c3.9-0.1,7.9,0.3,11.8,0.5c-1.2,1.7-2.2,4.8-3.5,4.9
		C473.6,430.3,470.3,429.4,467,429z"/>
	<path class="st1" d="M363.5,553.5c-5.4,1.4-10.7,3.7-16,5.7c-1,0.4-1.8,1.7-2.7,1.9c-0.4,0.1-1.6-2.2-1.5-2.4
		c1.6-3.1,3.1-6.7,5.3-8.7c7.7-6.9,16.3-12.1,23.5-19.9c8.7-9.4,16.2-20.8,24.3-31.2c0.7-0.9,2.1-1,3.2-1.5c0,2.5,0.8,6.3-0.1,7.4
		c-8.8,10.9-17.9,21.4-26.8,32.1c-0.3,0.4-0.3,2,0,2.5c2,2.8,5.5,8.3,6.2,7.8c14.1-11.8,27.9-24.1,41.6-36.5c4.4-4,8.4-9,13-12.6
		c2.5-1.9,5.8-1.8,8.8-2.7c3-0.9,6.2-1.2,8.8-3c2.7-1.7,4.8-4.9,7.2-7.5c-3-0.4-6.5,0.4-8.9-1.4c-4.6-3.5-8.5-8.5-12.8-12.9
		c5.6-3.9,11.4-7.3,16.7-11.9c6.6-5.7,12.6-12.5,19-18.6c0.7-0.6,2.6-0.3,3.2,0.5c1.3,1.8,2.6,4.1,3.1,6.5c0.2,0.9-1.7,2.7-2.7,4
		c-0.9,1.2-1.8,2.4-2.7,3.6c1.5,0.8,3,1.6,4.5,2.2c1.9,0.7,3.8,1.2,5.8,1.7c-0.6,3-0.7,6.5-2,8.9c-4,7.2-8.5,14-12.7,20.9
		c-0.3,0.5-0.2,1.8,0,2.3s1.1,0.7,1.6,0.6c6.2-1.9,12.5-3.6,18.6-5.7c-9.2,6.6-18.3,13.2-27.9,18.4c-12.6,6.8-26.9,8.5-39.2,16
		c-9.7,5.9-16.8,19.5-26.5,25.1C385.8,550.9,374.2,550.7,363.5,553.5z"/>
	<path class="st1" d="M529.8,600.8c-1,1.1-1.7,2.4-3,3.4c-1.2,0.9-3.3,1.3-4.7,2.2c-7.5,5-14.6,10.1-22.3,14.9
		c-1.7,1.1-5.3,1.7-7.7,1.4c-2.4-0.3-4.3-2-6.4-3c2.1-1.4,4.2-2.8,6.5-4.2s4.7-2.7,7.1-4c-1.6-0.8-3.2-1.6-4.7-2.4
		c-0.6,0.8-1.1,2.3-1.8,2.3c-8.7,0.4-17.5,1.1-26.2,0.8c-10.3-0.2-20.7-1.8-31-1.8c-9.7,0-19.7,0.5-29,2
		c-10.6,1.7-20.7,4.7-30.8,7.3c-5.5,1.4-10.9,3.2-14.5,4.3c-1.4,1.8-2,2.5-2.6,3.3c-1.3-1-3.9-2.5-3.6-2.9c2-2.2,4-4.9,7.2-6.1
		c11.5-4.4,23.3-8.5,35.3-12.2c6-1.9,12.8-2.6,18.9-4.3c5.1-1.4,9.7-3.6,14.7-5.2c2.3-0.8,5.1-1,7.6-1.5c-0.3,1.1-1.4,2.6-0.8,3.2
		c2.4,2.4,4.7,5.5,8.2,6.4c6.9,1.7,14.8,3.3,21.8,2.7c14-1.3,27.5-4.6,41.4-6.4C516,600.2,523,600.9,529.8,600.8z"/>
	<path class="st1" d="M530.6,494.6c-13.1,11.9-27.7,21-41.4,31.7c-9.7,7.5-19.1,15.7-28.8,23.2c-1.8,1.4-4.5,0.8-6.8,0.9
		c-0.4,0-1.1-2.6-1-2.7c3.8-3.3,7.7-6.2,11.4-9.5c10.7-9.5,21.4-19.1,32.1-28.6c0.8-0.8,1.7-1.4,2.5-2.2c0.5,0.9,0.9,1.7,1.4,2.6
		c5.3-5.9,10.3-12.6,16.1-17.5c6.9-5.8,14.5-10.1,21.8-15.2c0.7-0.5,0.7-2.5,1-3.8c-0.8,0.4-1.7,1.2-2.5,1.2c-2-0.2-4-0.5-5.8-1.2
		c-3.3-1.3-6.5-3-9.7-4.5c-1.1-0.5-2.3-0.6-3.4-0.9c1.1-3.2,1.5-7.8,3.4-9.4c10.1-8.3,20.4-16,30.8-23.6c8.4-6.2,17-12.1,25.6-17.6
		c1.5-1,3.9,0.6,5.9,1c-1.1,1.2-2.2,2.5-3.3,3.7c-4,4.3-8.1,8.5-11.9,13c-0.4,0.4,0.4,4,1,4.2c6.2,2.6,6.6,6.9-0.1,14.6
		C556.4,468,544,482.4,530.6,494.6z"/>
	<path class="st1" d="M720.7,550c5.6-13.6,11.6-26.7,18.3-41.9c4.5,6.4,5,7.3,5.7,8.1c-2.4,4.3-5.2,8.3-7.1,13.1
		c-3.2,7.9-5.5,16.5-8.7,24.3c-1,2.5-4.4,4.8-5.9,4.2C721.6,557.3,720.1,551.6,720.7,550z"/>
	<path class="st1" d="M806.2,461.4c-1.2,2.2-1.1,5.5-1.6,8.4c2-1.3,3.8-2.8,5.9-3.8c14.7-7.3,29.5-14.4,44.2-21.7
		c2.8-1.4,5.4-3.3,8-5c1-0.7,1.9-1.6,2.8-2.4c0.8,2,1.6,4,4.6,11.4c-7.8,5.6-14.9,11.7-22.6,15.9c-2.8,1.5-7-2.5-10.4-1.9
		c-5.6,1.2-11.1,3.7-16.4,6.4c-7.1,3.6-14.1,7.5-20.8,12.2c-5.1,3.6-9.2,10-14.5,12.7c-3.1,1.6-7.5-1.8-11.4-2.9
		c-1.3-0.4-2.8-1-3.9-0.5c-3.6,1.7-7.1,3.9-10.6,5.9c1.6-4.3,2.5-9.7,5-12.6c9.3-10.8,18.8-21.4,28.9-30.8
		c11.2-10.5,23.2-19.8,34.9-29.4c0.5-0.4,2.7,1,2.6,1.3c-0.5,4.1-0.1,9.6-2,12.1c-5.3,7.1-11.5,13.1-17.4,19.5
		C810,458.1,807.5,459.1,806.2,461.4z"/>
	<path class="st1" d="M756.4,641.5c1.7-0.7,3.5-0.5,5.3-0.6c-1.4,2.6-2.4,6.5-4.2,7.4c-6.4,3.3-12.9,6.9-19.5,7.9
		c-10.4,1.7-21,1-31.5,2c-2.6,0.2-5.1,3-7.6,4.4c-0.6,0.3-1.5-0.4-2.3-0.4c-3.1-0.2-6.5-1.7-9.1-0.1c-10.6,6.6-21,14.2-31.5,21.3
		c-0.2,0.2-0.9-0.4-1.1-0.8c-8.4-14.5-12.6,2.8-18.6,5.7c-3,1.5-5.7,4.7-8.5,7.1c2.1-5.7,3.6-12.4,6.6-16.9c3-4.6,7.4-7.1,11.2-10.5
		c4.2-3.8,8.4-7.5,12.4-11.6c1.3-1.4,2-4.1,3-6.2c-1.2-0.4-2.5-0.5-3.7-1.2c-2.8-1.8-5.4-4-8.2-5.7c-0.6-0.4-1.7,0.8-2.5,1.5
		c-4.9,4.1-9.7,8.5-14.6,12.4c-1.5,1.2-3.5,1.4-5.2,1.1c-0.6-0.1-1.7-3.6-1.4-4.1c1.1-2,2.8-3.2,4.1-5.1c1.4-2.1,2.7-4.6,3.8-7.1
		c0.4-0.9,0.1-3.6,0-3.6c-3.5-0.6-7.3-2.4-10.4-1c-9.8,4.3-19.4,9.8-29.2,14.7c-0.4,0.2-1.1-1.2-1.7-1.9c2.2-2.3,4.2-5.2,6.6-6.9
		c8-5.5,16-10.9,24.3-15.6c3.7-2.1,7.8-2.2,11.8-3.2c0.2,0,0.5-0.2,0.5-0.4c2.3-7.7,4.5-15.5,7.1-23.1c0.4-1.1,2.3-1,2.6-1.1
		c0.7-3.7,0.7-5.9,1.2-6.2c3.7-2.1,7.6-3.9,11.4-5.7c0.4-0.2,1.3,0.8,1.4,0.7c3.7-8.1,7.4-16.2,10.9-24.6c0.2-0.4-2.2-4.4-3.1-4.2
		c-3.5,0.7-6.8,2.8-10.2,3.7c-1.5,0.4-3.2-0.8-4.8-1.7c-0.2-0.1-0.1-3.6,0.3-3.9c5.5-4,11-8.9,16.9-11.3c4.1-1.7,8.9,0,13.4,0.3
		c0.3,0,0.5,0.4,0.8,0.6c-1.7,3.5-3.6,7-5.2,10.6c-2.2,4.8-4.3,9.6-6.1,14.7c-0.1,0.4,3,4.7,4,4.3c3.2-1.3,6.2-4,9.3-6.2
		c0.4,2.9,1.9,7.5,1.1,8.4c-5.5,7.3-12.9,12.5-16.8,21.2c-3.5,7.8-3.2,19.4-4.5,29.2c1.6-0.2,3.4,0.3,4.8-0.6c4-2.8,7.7-6.3,11.7-9
		c0.8-0.6,3,0.3,3.2,1.2c0.4,1.7,0.1,4.1-0.5,5.9c-1.5,5.2-2.8,10.7-4.9,15.4c-1.6,3.8-4.2,6.6-6.3,10c-1,1.6-1.7,3.4-2.5,5.2
		c2.6-0.2,5.3,0.2,7.8-0.8c8.3-3.7,16.4-8.4,24.8-11.7c4.3-1.6,9-1.8,13.4-0.9c2.6,0.6,4.8,5.8,7.5,6.5c4.1,1,8.5,0.8,12.6-0.5
		C743.2,648,749.7,644.3,756.4,641.5z"/>
	<path class="st1" d="M603.9,473c-15.3,12.1-30.1,25.4-44.8,38.8c-6.3,5.7-11.9,12.7-17.8,19.1c-0.6,0.7-1.4,1.2-2.1,1.8
		c0.2-3.4-0.5-8.6,0.9-10c8.5-8.6,17.9-15.8,26.3-24.5c10-10.3,18.8-23,29.4-32.1c8.3-7.2,18.7-10,27.8-15.6
		c13.5-8.3,26.8-17.4,40.2-26c0.5-0.3,2.4,1,2.5,1.8c0.2,2.1,0.2,4.5-0.4,6.4c-0.4,1.3-2.2,1.8-2.9,3c-1.1,2-1.9,4.5-2.8,6.7
		c1.9-0.8,3.8-1.6,5.7-2.6c10-5.5,19.8-12,30.1-16c4.7-1.9,11.9,4.1,15.5,1.1c5.9-4.8,9.8-13.9,14.3-21.5
		c4.9-8.4,9.5-17.1,14.2-25.7c2.2-4,4.3-8.2,6.4-12.2c-6.9-4.2-13.8-8.4-20.7-12.6c-7-4.2-14-8.3-21.1-12.3c-4.8-2.7-9.9-4.8-14.4-8
		c-8.3-5.8-16-15.1-24.7-17.3c-4.1-1-10.2,11.1-15,17.9c-5,7.1-9.4,14.9-14,22.5c-0.4,0.6-0.3,2.7-0.1,2.8c1.8,0.8,4.3,2.6,5.6,1.7
		c3.5-2.6,6.4-6.8,10-9.4c2.1-1.5,4.9-1.2,7.5-1.7c-1.5,3.4-2.6,7.3-4.6,10.1c-4.8,6.9-9.9,13.6-15.2,19.8
		c-8.9,10.4-18.2,20.2-27.2,30.4c-7.4,8.4-14.4,17.2-21.8,25.5c-0.7,0.8-2.9-0.8-4.5-1.3c1.9-3.7,3.5-7.7,5.6-11.2
		c7.1-11.5,14.1-23.3,21.7-34.2c5.5-7.9,12.2-14.2,18-21.8c1.1-1.4,0.3-5.4,0.4-8.2c-1.7,0.7-3.9,0.8-4.9,2.2
		c-6.7,9.5-12.4,20.3-19.8,28.6c-4.7,5.3-11.7,7.1-17.8,10.3c-12.6,6.6-25.4,12.4-37.8,19.7c-13.1,7.7-25.8,16.6-38.6,25.2
		c-0.6,0.4-0.7,2.3-0.9,3.5c-0.4,2.6-0.7,5.2-1,7.8c0-2.5,0.1-5.1-0.2-7.6c-0.1-1-1.4-2.6-1.8-2.4c-2.6,1.3-5.2,2.9-7.7,4.6
		c-2.8,1.9-5.5,4.2-8.3,5.7c-0.4,0.2-2.8-3.1-2.5-3.9c1.1-3.6,2.8-6.9,4.3-10.3c0.4-0.9,1.2-2.6,1.1-2.6c-2.9-2.8-5.6-5.9-8.8-8
		c-1.7-1.1-4-0.6-6.1-0.8c0.5-1.6,0.9-4.7,1.4-4.7c2.8-0.1,5.6,1,8.4,0.8c13.2-1.1,27,0.3,39.5-4.5c14.1-5.4,27.2-15.5,40.1-25.2
		c13.6-10.2,26.5-22.1,39.6-33.5c8.3-7.2,17-13.7,24.4-22.2c7.2-8.2,11.9-22.2,20-26.8c7.9-4.6,19.5-3.5,28,0.4
		c17.7,8.2,34.4,19.8,51.5,30.3c5.1,3.2,10,10.6,14.8,10.4c11.1-0.4,22.1-4.5,33.2-6.8c6.3-1.3,13.3-4.9,18.8-2.5
		c13.4,5.9,26.7,13.3,38.9,22.7c19.1,14.8,37.3,31.8,55.8,47.9c6.2,5.4,12.5,10.4,18.5,16.2c0.9,0.9,0.7,5.9-0.3,7.4
		c-0.9,1.3-4.1,1.4-5.5,0.4c-9.5-6.6-19.2-12.8-27.9-20.8c-14.7-13.5-28.1-29.4-43.1-42.1c-5.4-4.6-13.8-2.8-20.9-4.1
		c-0.8-0.1-2-0.7-2.1-1.3c-0.3-3.1-0.3-6.2-0.5-9.3c-3.9,5-7.8,9.9-11.5,15.2c-0.9,1.3-1,3.8-1.4,5.8c-2.2-3.1-4.6-6-6.6-9.4
		c-2.3-3.8-4.3-8.1-6.5-12.1c-4.5,4.6-9.1,9.2-13.5,13.9c-0.6,0.7-0.9,2-1.2,3.1c-0.7-0.5-1.3-1.1-2-1.4c-2.3-0.9-6.3-3-6.6-2.3
		c-2.3,5.4-3.5,11.6-5.8,16.9c-2.2,5.2-5.3,9.8-8.1,14.5c-7.8,13-15.2,26.5-23.6,38.8c-3.8,5.5-9.6,8.5-12.3,10.8
		c-3.7,0-4.6-0.4-5.2,0.1c-11.8,8.7-23.5,17.7-35.5,26.2c-6.6,4.7-13.6,8.4-20.4,12.5c-0.5,0.3-1.3-0.6-2-1
		c2.1-4.1,3.7-8.9,6.3-12.2c5.5-6.8,11.6-12.8,17.4-19.2c0.5-0.6,0.3-2.3,0.5-3.4c-1.1,0.2-2.5,0-3.2,0.8
		c-7.2,7.9-13.6,17.6-21.6,23.5c-10.4,7.7-21.9,12.5-33.1,18.1c-1.2,0.6-3.3-2.4-5-3.7c1.6-2.3,3-5.2,4.9-6.7
		c10.1-8.1,20.3-15.8,30.4-23.8c2.1-1.7,3.9-3.8,5.9-5.8c-1-1-2.1-2.9-3-2.8c-4.9,0.5-9.8,0.8-14.5,2.6c-6.4,2.5-12.3,6.9-18.6,9.1
		C613.5,472.8,607.5,470.1,603.9,473z"/>
	<path class="st1" d="M838.7,577.9c-10.7,10.8-21.4,21.8-33.1,30.5c-13.1,9.8-27.1,17.2-41,25.1c-1.7,1-4.7-1.7-7.1-2.7
		c0.6-1.4,1-3.2,1.8-4.1c2.4-2.5,4.9-4.7,7.5-6.7c7.2-5.4,14.5-10.5,21.6-16c8.9-6.9,18.2-13.1,26.2-21.5c7.3-7.7,12.5-19,20-26.5
		c13-13.1,27.1-24.4,40.7-36.5c3.7-3.3,7.2-6.8,9.4-8.9c1.3-4.5,2-7,2.9-9.2c0-0.1,2.3,0.6,2.7,1.5c0.8,1.6,1.7,4.4,1.1,5.5
		c-2,4.5-4.6,8.5-6.9,12.7c4.7-1.1,9.5-1.8,14-3.5c4.4-1.6,8.6-4.2,13-6.3c0.6-0.3,1.8-0.3,1.9-0.1c0.4,1.4,1,3.3,0.5,4.3
		c-1.5,3.3-3,7.7-5.3,9.1c-15,8.9-30.9,15.8-45.3,26.1C854.2,557.4,847.2,569.3,838.7,577.9z"/>
	<path class="st1" d="M1090.7,513.4c1.3,1.8,2.1,5.4,1.7,7.8c-0.2,1.3-3.4,1.6-5.2,2.5c-8.9,4.3-17.8,8.9-26.8,13.1
		c-10.6,4.9-21,11-32,13.7c-13.8,3.5-28,4.5-42.1,5.7c-4.8,0.4-9.8-3.4-14.5-2.6c-4.3,0.8-8.2,5.3-12.3,7.9
		c-12,7.5-24.8,13.3-35.9,22.7c-14.9,12.6-28.5,27.8-42.6,42c-1.2,1.2-1.8,3.3-6.7,12.6c-0.8,0.6-7.3,6.3-14.2,10.7
		c-1.7,1.1-4.9-1.9-7.4-3c0.8-3.1,0.9-7.6,2.5-8.9c1.9-1.6,5.8,0.7,7.7-0.9c4.5-3.9,8.3-9.4,12.6-13.8c5.5-5.5,11.5-10.4,17-15.9
		c6.5-6.3,12.8-12.8,19.1-19.4c2.6-2.7,4.4-6.7,7.1-9.3c13.8-13.5,27.9-26.4,41.5-40.2c3.4-3.5,4.9-10.2,8.2-14
		c5.7-6.8,12-12.7,18.4-18.5c7.8-7.1,15.9-13.3,23.7-20.3c5.4-4.9,10.4-10.7,15.9-15.5c1.2-1,4.1,0,5.4,1.4c1.2,1.4,2.2,5,1.7,6.8
		c-0.7,2.4-2.9,4.2-4.7,5.8c-5.1,4.3-10.3,8.3-15.4,12.4c1.2,2.3,3.3,6.7,3.4,6.7c6.2-4.9,11.9-11.4,18.5-15.2
		c7-4,14.9-5.6,22.3-8.2c-0.7,2-1,5-2.2,5.9c-2,1.6-5,1.1-6.8,2.8c-6.7,6.6-12.9,14-19.6,20.6c-2,2-5,2.1-7.5,3.2
		c-10,4.4-20.1,8.4-29.7,13.9c-1.8,1-1.3,8.8-1.8,13.4c1.3-0.9,2.9-1.6,3.8-3c0.7-1.1,0.5-3.1,0.7-4.8c8,2.5,16,4.9,24.1,7.4
		c-0.5,0.6-1.1,1.2-1.6,1.8c2.6,1.3,5.8,4.7,7.8,3.7c20.3-10.2,40.3-21.2,60.6-31.7C1086.8,511.8,1089.7,512.1,1090.7,513.4z"/>
	<path class="st1" d="M1170.4,552.6c-0.3,0.6-2.7,0-3.9-0.8c-9.8-6.8-19.7-13.5-29.2-20.9c-3-2.3-4.7-7.1-7.4-10.1
		c-3.4-3.9-6.9-7.8-10.9-10.6c-7.2-5-14.9-8.8-22.1-13.6c-5-3.3-10.2-6.7-14.2-11.6c-5-6.1-10-13-13.3-20.8
		c-7.7-18-19.3-16.3-31.1-12c-3.7,1.3-6.4,7.1-9.6,10.9c-1.4,1.6-2.8,3.1-4.2,4.6c-0.5-1.3-0.8-2.9-1.6-3.7c-1-1.1-3-2.5-3.4-2.1
		c-10.9,11.9-38.8,9.4-48.8-4c-1.6-2.2-5.3-1.8-8-2.6c-0.1,0.2-0.3,0.4-0.4,0.5c-8.3,8-16.1,16.9-24.9,23.7
		c-12.1,9.3-24.9,17.1-37.5,25.3c-1.5,1-3.6,0.7-5.4,1c0.5-4,0-10.3,1.7-11.8c14.6-12,29.7-22.9,44.4-34.5c1.9-1.5,2.8-5.2,4.2-7.9
		c-4.9-2.5-10.8-8.4-14.6-6.7c-9.3,4.3-17.7,12-26.3,18.8c-11.9,9.4-23.2,20-35.4,28.6c-7.6,5.4-16.3,8.1-24.6,11.9
		c-0.8,0.3-1.8-0.7-2.8-1c1.3-1.7,2.5-3.9,4-4.9c2-1.3,4.6-1,6.5-2.3c7.7-5.3,15.3-10.7,22.8-16.6c10.6-8.3,21.1-17,31.6-25.7
		c2-1.7,3.3-5.4,5.4-6.2c13.9-5.4,28.1-14.7,41.8-13.7c10.5,0.7,20.5,14.7,30.7,22.7c0.1,0.1,0.2,0.3,0.3,0.3c5-0.8,10.1-1,14.9-2.5
		c12.8-3.9,26.2-6.3,38-13.2c24.6-14.4,34.9,13.1,49.7,27.3c10.4,10,19.8,22.3,30.6,31.3c10.5,8.7,22.5,14,33.4,21.9
		c8.1,5.8,15.6,13.2,23,20.6C1174.4,542.8,1171.9,549.2,1170.4,552.6z"/>
</g>
<path class="st2" d="M255.5,719c-1.7,1.2-3,2.4-4.4,3c-1.1,0.5-2.5,0.8-3.5,0.3c-5.1-2.5-9.4-1.4-13.4,3.5c-0.6,0.8-1.7,1.2-2.6,1.2
	c-4.3-0.1-7.7-3.2-11.2-6c-0.6-0.5-0.6-2-0.7-2.5c-2-2.1-3.7-3.8-5.4-5.7c-0.3-0.3-0.5-1.6-0.3-1.7c1.5-1.4,2.2-4.2,4.6-4.3
	c3.2,0,4.3-1.5,3.8-5.8c-0.5-3.6,1.3-4.5,3-6c2.3-1.9,4.9-3.5,4.6-8c0-0.5-0.1-1.3,0.2-1.6c1.5-1.8,1.8-2.8,0.6-5.7
	c-1.1-2.6-2.2-3-3.5-2.1c-1.6,1-1.9-0.9-1.6-1.2c1.3-2.1,0.5-5.6,2.9-6.9c0.5-0.3,0.9-0.9,1.3-1.4c1.2-1.5,1.1-2.8-0.5-3.6
	c-0.8-0.4-1.6-0.9-2.1-1.1c1.2-1.7,2.6-3,3.4-4.9c0.9-2,1.6-4.4,1.7-6.7c0-1.3-1.4-2.6-2.3-4.2c0-0.1,0.3-1.1,0.9-1.3
	c1.5-0.7,1.3-1.3,0.7-3c-0.4-1.2,0.1-3.2,0.4-4.7c0.6-2.7,1.6-5.2-1.2-7c-0.5-0.3-0.6-1.6-0.8-2c3-2.8,5.8-5.3,8.7-7.9
	c-3.2-2.5-3.1-3.2,0.2-7.2c-1-1.5-2-3.1-2.6-4c2.1-3.8,4.3-6.9,5.7-10.6c0.8-2.2,0.3-5.1,0.5-7.7c0.1-1.4,0.3-3.2,1-4.1
	c2.9-3.8,3.4-7.5,1.6-12.7c-1.3-3.7-0.7-8.4-1-12.7c0.4-0.2,0.7-0.3,1.1-0.5c0.7,1.1,1.9,2.1,2,3.2c0.3,4.5,0.3,9,0.5,13.5
	c0,1.1,0.5,2.2,0.8,3.3c0.1,0.5,0.4,0.9,0.6,1.4c0.6,2,1.3,4,1.8,6.1c0.4,1.5,0.5,3.1,0.6,4.7c0,0.7-0.5,1.5-0.4,2.1
	c0.5,3-0.7,5.2-1.9,7.3c-1.3,2.2-1.5,4.1,0.1,6.6c2.1,3.1,0.8,7-2.4,7.7c-1.3,0.3-2.6,0.4-3.9,0.5c-1.5,0.1-2.1,1-1.7,3
	c2.7,1.4,5.4,2.8,8.2,4.3c0.2,1.2,0.7,2.7,0.6,4.1c-0.1,1.4-0.6,3.5-1.3,3.9c-2.4,1.2-2.1,3.8-1.5,5.5c1,3.1,0.7,7.1,3.8,9
	c1.2,0.7,1.9,2.8,3.1,4.6c-1.1,0.5-1.7,0.6-2.1,1c-0.4,0.3-0.7,1-0.7,1.5s0.5,1,0.9,1.3c1.1,0.7,2.3,1.3,3.5,2
	c-0.8,3.8-3.1,4-5.1,4.9c-2.3,1-4.6,2.2-6.9,3.4c-0.3,0.2-0.7,1.6-0.5,1.8c0.9,1,1.8,2.2,2.8,2.6c1.8,0.8,3.7,1.1,6.1,1.8
	c-1.7,2.4-2.9,3.9-3.8,5.6c-1.5,2.7-0.1,7.5,2.3,8.4c1.6,0.6,2.6,1.8,2.5,4.2c-0.6,0.2-1.2,0.3-1.6,0.7c-0.7,0.8-1.7,1.8-1.7,2.7
	c0,1.1,0.8,2.4,1.5,3.2c0.7,0.9,1.7,1.4,2.8,2.2c-0.5,1.1-0.8,2.1-1.3,2.6c-2.1,2.3-2,5.5-2,8.5c0,1.1,1.2,2.2,1.9,3.3
	C253.6,716.1,254.6,717.6,255.5,719z"/>
<path class="st2" d="M814.5,706.5c1.4-1.8,1.9-4.1,4.8-4.2c0.4,0,1.2-1.3,1.1-1.9c-0.1-0.8-0.9-1.6-1.4-2.4c-0.1-0.1-0.3,0-0.5-0.1
	c-1.4-0.6-4-0.2-3.8-2.2c0.2-1.4,2.3-2.6,3.7-3.7c1.3-1,2.8-1.6,4.3-2.5c0.4-3.2,1.9-7-2.2-9.7c0.7-0.3,1.2-0.6,1.8-0.9
	c-0.3-0.5-0.7-1-0.9-1.6c-0.4-1.1-0.6-2.3-1-3.3s-1.5-2.3-1.2-2.9c1-2,2.3-4,3.9-5.4c1.9-1.6,4.3-2.5,6.4-4c0.4-0.3,0.6-2,0.2-2.4
	c-1.7-1.6-1-2.6,0.4-4c2.3-2.4,4.5-5.1,6.2-7.9c0.8-1.3,0.5-3.2,0.6-4.9c0-2,0.4-3.5,2.6-4.2c0.6-0.2,1.1-1.3,1.4-2
	c0.8-2.2,1.4-4.5,2.2-6.7c0.2-0.5,1.3-0.7,1.9-1.1c0.2,0.8,0.5,1.6,0.5,2.4c0,0.4-0.7,0.7-0.8,1.2c-0.3,1.1-0.9,2.4-0.5,3.2
	c2.2,4.5,1.4,8.6-1.4,12.4c-0.9,1.2-2.5,2-3.9,3.1c1.3,3.1,2.7,6.5,4.2,9.8c1.3,2.8,0.1,4.8-2.6,4.4c-1.3-0.2-2.7,0-4.3,0
	c0.8,2,1.4,3.4,2,5c0.7,0.1,1.6,0.2,2.4,0.3c-0.5,2.2-1,4.2-1.3,6.2c-0.1,0.5,0.6,1.2,0.9,1.7c0.4,0.7,0.7,1.5,1,2.2
	c-0.6,0.2-1.3,0.2-1.9,0.6c-0.7,0.5-1.3,1.2-1.8,2.1c3,0.1,3.4,2.3,4.2,4.1c0.4,0.9,0.7,2-1,2.4c-1,0.3-1.4,4.2-0.6,5
	c0.8,0.7,1.7,1.3,2.5,1.8c-0.3,0.2-0.8,0.7-1.4,1.1c-0.8,0.5-1.5,1.3-2.4,1.5c-2.9,0.7-3.8,2.1-3,4.8c0.6,2.1,1.2,4.2,1.3,6.4
	c0.2,2.7,1.4,4.8,4.3,5.9c-0.4,0.6-0.8,1.2-1.1,1.9c-0.7,1.6-2.1,3.2,0.1,5c0.7,0.6,0.5,2.4,0.7,3.7c-1,0.1-2,0.5-3,0.4
	c-4-0.2-8-1.1-11.8,1c-0.2,0.1-0.5,0.1-0.7,0.1c-3.6,0.2-7.2,0.5-10.8,0.6c-3.4,0.1-6.9,0-10.4,0c-0.1-0.4-0.1-0.7-0.2-1.1
	c1.2-0.6,2.3-1.4,3.5-1.8c3.5-0.9,5.2-3.8,7-6.5c1.4-2,2.6-4.3,3.4-6.6c0.5-1.3,1.1-3.6-2-3.6C815.8,709.1,815.1,707.4,814.5,706.5z
	"/>
<path class="st2" d="M900,636.1c-1,0.6-1.8,0.7-2.3,1.4c-0.6,0.8-1.3,2.3-1.1,3.1c1.1,5.2-0.1,7.6-3.9,8c-0.7,0.1-1.3,0.1-1.9,0.1
	c-0.4,3.9,1,6.5,4.1,7.7c2.5,1,3.2,3.3,2,6.7c-0.5,1.3-0.6,2.8-1,4.2c-0.4,1.2-1,2.3-1.3,3.6c-0.2,0.9-0.2,2.4,0.2,2.8
	c2.3,2.3,4.7,4.2,7,6.5c1.9,1.9,1.3,8-0.8,9.6c-0.4,0.3-0.7,0.8-1.1,1.3c-0.9,1-1.7,2.2-2.6,3c-2.3,2-2.4,5.7-3.3,8.8
	c-0.1,0.2,0.9,1.2,1.5,1.7s1.2,0.9,1.8,1.3c-0.4,0.9-0.8,1.8-1.3,2.7c-0.6,1.1-1.6,1.9-2,3.2c-0.5,1.6-0.3,3.1,1.5,3.5
	c1.6,0.3,3.2,1.1,5,1.8c-0.2,1.1-0.3,2.4-0.8,3.1c-1.1,1.4-1.2,2.2,0,3.8c0.5,0.7,0.2,3.2-0.4,4.4c-1.1,2.4-2.6,4.4-4,6.7
	c-3-2-6.1-2.2-9.4-1.1c-1.4,0.5-2.9-0.1-4.4-0.4c-0.9-0.2-1.8-1-2.6-0.9c-2.6,0.3-4.2-1.6-5.8-4.2c-2.4-3.9-2.1-6.7,1.5-8.4
	c1.3-0.6,2.8-0.7,4-1.6c0.6-0.5,1.3-2.7,1-3.3c-1.7-3.7-3.7-7.2-5.6-10.8c-0.3-0.5-0.2-4.1-0.1-4.8c0.3-1.4,1.2-2.9-0.5-4.1
	c-0.3-0.2,0-3.6,0.3-3.7c2.8-1,3.2-5.2,5.2-7.1c0.4-0.3,0.7-0.7,1.1-0.9c1.4-0.7,2.1-1.6,0.5-3.2c-0.1-0.1-0.3-0.3-0.4-0.5
	c-0.6-3-1.2-6-1.8-9.2c0.4-0.2,0.8-0.2,1.1-0.4c0.6-0.6,1.2-1.2,1.8-1.9c-0.7-0.5-1.4-0.9-2-1.5c-1.5-1.6-3-3.2-5.2-5.6
	c2.2-1.4,3.8-2.8,5.6-3.5c1.8-0.8,2.9-2.7,2-6c-1.3-4.8,1-7.6,2.6-10.9c0-0.1,0.2-0.1,0.2-0.1c0.1-4.9,3.9-4.2,5.3-7
	c0.4-0.8,0.6-2,0.6-3.1c0-6.8-1.6-14,3.3-19.4c3.7-4,3.5-9.8,1.7-16.3c1.3,0.1,2.8-0.3,3.2,0.3c0.9,1.9,1.7,4.2,1.9,6.5
	c0.2,2.1-0.3,4.4-0.9,6.4c-1,3.3-1.4,6.2,1,8.3c-1.9,6.1-1.9,6.1-1.1,8.3C896.5,629.3,896.5,631.4,900,636.1z"/>
<path class="st2" d="M319.6,594.9c4.4,2.7,4.7,3.4,3.9,7.7c-0.4,1.9-0.7,3.8-1.1,5.9c3.2,3.3,3.2,3.3-2.5,8.1c0.3,0.3,0.6,0.7,1,0.9
	c1.5,1,2.1,2.1,0.8,3.8c-2.3,3.2-2.1,3.2,0.3,6.2c0.5,0.6,0.7,2,0.4,2.7c-0.7,1.8-0.5,3.3,0.7,4.8c0.7,0.8,1.3,1.8,2.1,2.9
	c0.2,0,0.8-0.1,1.3,0c0.8,0.2,2.2,0.5,2.3,0.9c0.1,1,0,2.5-0.6,3.1c-1.7,1.4-3.7,2.4-6,3.8c0,0,0.2,0.6,0.4,1.3c-0.9,0-1.9,0-2.8,0
	c-0.1,0.3-0.2,0.5-0.3,0.8c1.1,0.5,2.1,1,3.5,1.7c0.7,1.8-1,1.8-2.5,2.1c0,0.2,0,0.4-0.1,0.7c2.2,0.9,4.4,1.8,7.2,2.9
	c-1.6,1.5-2.9,2.6-4.1,3.7c-0.8,0.7-1.7,1.2-2.3,2.1c-0.2,0.4,0.4,1.8,0.6,1.8c2.5-0.1,2.9,1.8,2.8,3.3c-0.2,3,1.5,5,2.9,7.3
	c0.3,0.6,0.5,1.8,0.2,2c-2.5,1.9-5.1,3.7-7.8,5.2c-0.8,0.5-2.2-0.1-3.3-0.1c-0.9-0.1-1.9-0.4-2.6-0.2c-5,1.5-8.6-0.5-10.7-5.3
	c-0.7-1.6-3.3-2.5-5.2-3.4c-0.6-1.7-0.2-3.3,1.6-4.6c1.2-0.8,2.2-2,3.1-3.1c0.8-1,2-1.9,1.1-3.6c-0.9-1.9-2.5-2.6-4.3-2.5
	c-1.7,0.1-3.3,0.6-5.2,1c-0.6-2.6,1.7-3.6,2.6-5.3c0.8,0.5,1.5,0.9,2.3,1.4c0.5-0.8,0.8-1.5,1.2-2.1c0.1,0.1,0.2,0.1,0.3,0.2
	c-0.2,0.5-0.4,1-0.7,1.6c2.7,0.3,3.8-0.6,4.1-3c0.1-0.6,0.4-1.2,0.9-1.6c2.4-1.9,2.9-4.4,1.6-6.8c1.5-2.7,2.9-5.2,4.1-7.8
	c0.2-0.4-0.4-1.6-0.9-1.8c-2-0.8-2.9-1.8-1.4-3.8c0.2-0.2,0.2-0.6,0.2-0.9c-0.4-2.3-0.9-4.5-1.3-6.8c-0.1-0.5,0-1.2,0.2-1.6
	c1.7-2.8,2.7-6.2,6.4-7.4c0.6-0.2,1.1-1.5,1-2.3c-0.1-1.9,0.5-3.1,1.8-4.5c1.2-1.3,1.7-3.3,2.2-5
	C319.3,599.3,319.3,597.3,319.6,594.9z"/>
<g>
	<g>
		<path class="st1" d="M191.8,313.5c0.2,0.9-0.1,1.8-0.8,2.6c-0.7,0.8-1.7,1.3-2.8,1.6c-1.6,0.3-2.9,0-3.9-1
			c-10.7-10.6-21.5-21-32.4-31.4c-4.7,1.1-9.4,2.2-14.1,3.3c2.8,11.7,5.5,23.4,8.3,35c0.5,2.2-0.6,3.7-3.4,4.3
			c-2.8,0.7-4.4-0.1-5-2.3c-5.8-24.3-11.6-48.6-17.5-72.9c-0.2-0.9,0-1.8,0.7-2.7s1.6-1.5,2.8-1.7c9-2.1,18-4.2,27-6.2
			c7.3-1.6,13.8-0.9,19.4,2.2c5.3,3,8.5,7.3,9.7,13.1c0.9,4.3,0.2,8.5-2.2,12.8c-2.3,4.3-5.9,7.7-10.6,10.3c-1.1,0.6-2.3,1-3.8,1.4
			c-1,0.2-2.1,0.4-3.1,0.5c-0.3,0.7-0.6,1.4-0.9,2.1c2.2,1.2,4.3,2.4,6.5,3.6c8.5,7.9,16.9,15.8,25.2,23.8
			C191.3,312.3,191.6,312.9,191.8,313.5z M171,259.2c-0.9-4.1-3.1-7.3-6.8-9.5c-3.6-2.2-7.8-2.8-12.3-1.8c-7.5,1.7-15,3.4-22.6,5.2
			c2.3,9.9,4.7,19.8,7,29.7c6.8-1.6,13.6-3.2,20.4-4.7c4.8-1.1,8.5-3.5,11.3-7.3C170.9,267,171.9,263.2,171,259.2z"/>
		<path class="st1" d="M264.7,281.4c1,5.5-0.6,10.7-4.8,15.5c-4.2,4.8-9.6,7.8-16.4,9.1c-3,0.6-6,1.1-9,1.7
			c-6.8,1.3-13,0.5-18.6-2.5c-5.6-2.9-9-7.2-10.1-12.7c-2.7-13.2-5.4-26.5-8.1-39.7c-1.1-5.5,0.4-10.7,4.6-15.7
			c4.2-4.9,9.9-8.1,16.9-9.4c3.1-0.6,6.2-1.2,9.4-1.8c7.1-1.3,13.5-0.5,19.2,2.6c5.7,3,9,7.3,10,12.9
			C260.1,254.8,262.4,268.1,264.7,281.4z M256.4,283.9c-2.5-13.9-5-27.9-7.5-41.8c-0.7-3.7-2.9-6.5-6.6-8.5c-3.8-2-8-2.6-12.6-1.7
			c-3.1,0.6-6.2,1.2-9.3,1.8c-4.7,0.9-8.4,3-11.2,6.2s-3.8,6.7-3.1,10.3c2.8,13.9,5.6,27.8,8.3,41.7c0.7,3.6,3,6.4,6.7,8.4
			s7.8,2.5,12.3,1.6c3-0.6,6-1.1,9-1.7c4.5-0.8,8.1-2.8,10.9-6C256,291,257,287.6,256.4,283.9z"/>
		<path class="st1" d="M339.4,287.3c0.3,2-0.8,3.1-3.2,3.5c-5.3,0.8-10.6,1.5-15.9,2.3c-9,1.4-17.2,0-24.5-4.2s-11.6-9.9-12.8-17.2
			c-1.5-9-3-18-4.5-27c-1.2-7.3,1-14.2,6.8-20.4c5.8-6.3,13.4-10.2,22.8-11.6c5.1-0.8,10.1-1.5,15.2-2.2c2.5-0.4,3.9,0.4,4.2,2.4
			c0.3,2-0.8,3.1-3.3,3.5c-5.1,0.7-10.1,1.5-15.2,2.2c-7,1-12.6,3.9-16.9,8.6c-4.3,4.7-6,9.7-5.1,15.2c1.6,9.7,3.1,19.3,4.7,29
			c0.9,5.5,4,9.7,9.4,12.8c5.4,3.1,11.5,4.2,18.2,3.1c5.3-0.8,10.6-1.6,15.9-2.3C337.8,284.5,339.1,285.3,339.4,287.3z"/>
		<path class="st1" d="M413.3,278.1c0.1,1-0.3,1.8-1.1,2.6c-0.8,0.8-1.8,1.3-2.9,1.4c-1.2,0.1-2.2-0.1-3.2-0.8
			c-14.6-11.2-29.5-22.3-44.6-33.2c-0.2,0-0.4,0.1-0.6,0.1c1.5,11.9,3,23.8,4.6,35.7c0.3,2.3-1,3.6-3.8,3.9
			c-2.8,0.4-4.4-0.6-4.7-2.8c-3.3-25.1-6.6-50.2-9.9-75.3c-0.3-2.3,1-3.6,3.9-4s4.6,0.6,4.8,2.9c1.5,11.8,3,23.6,4.5,35.4
			c0.2,0,0.4-0.1,0.6-0.1c2.2-2.6,4.4-5.3,6.6-7.9c9.8-11.7,19.8-23.3,30-34.8c0.8-0.9,1.8-1.4,3-1.5s2.2,0.1,3.2,0.7
			c1,0.6,1.5,1.4,1.6,2.4c0.1,0.9-0.2,1.7-0.9,2.5c-9.2,10.3-18.4,20.6-27.3,31c-3.2,2.6-6.3,5.3-9.4,7.9c0.1,0.7,0.2,1.4,0.3,2.1
			c3.4,1.5,6.7,3.1,10.1,4.7c11.4,8.2,22.7,16.5,33.9,25C412.7,276.5,413.2,277.2,413.3,278.1z"/>
		<path class="st1" d="M482.9,196.4c0,0.5-0.1,1-0.3,1.6c-7.2,15.1-14.1,30.2-21,45.3c-0.4,0.9-1.5,1.6-3.2,2.2
			c0.8,9.4,1.6,18.9,2.4,28.3c0.2,2.3-1.1,3.5-4,3.8c-2.8,0.2-4.4-0.8-4.6-3c-0.8-9.4-1.6-18.9-2.5-28.3c-1.8-0.3-3-0.8-3.5-1.6
			c-9.3-13.8-18.7-27.5-28.3-41.1c-0.3-0.5-0.5-1-0.6-1.5c-0.1-1,0.3-1.8,1.2-2.6c0.9-0.8,1.9-1.2,3.2-1.3c1.8-0.2,3.1,0.4,4,1.7
			c7,10.4,13.9,20.8,20.8,31.3c1.6,3.3,3.3,6.7,4.9,10c1.5-0.1,3.1-0.3,4.6-0.4c1.1-3.6,2.1-7.2,3.2-10.7
			c4.9-11.5,10-22.9,15.1-34.4c0.6-1.4,1.9-2.2,3.7-2.4c1.2-0.1,2.3,0.2,3.3,0.8C482.3,194.7,482.8,195.4,482.9,196.4z"/>
		<path class="st1" d="M614,266.6c0,2.3-1.4,3.4-4.2,3.5c-2.8,0-4.3-1.1-4.3-3.4c-0.3-18.3-0.6-36.6-0.8-54.9
			c0.5-5.9,1.1-11.8,1.6-17.6c-1.3,0-2.5,0-3.8,0.1c-2.6,4.4-5.3,8.8-7.9,13.2c-4.9,6.4-9.7,12.9-14.5,19.4
			c-0.9,1.2-2.1,1.8-3.6,1.9c-1.5,0-2.8-0.5-3.7-1.7c-5.2-6.2-10.4-12.4-15.6-18.5c-2.9-4.3-5.7-8.5-8.6-12.8
			c-1.3,0.1-2.5,0.1-3.8,0.2c0.9,5.8,1.8,11.7,2.6,17.5c0.8,18.3,1.5,36.6,2.3,54.8c0.1,2.3-1.3,3.5-4.1,3.6s-4.3-1-4.4-3.2
			c-1.1-25-2.3-49.9-3.4-74.9c0-1,0.4-1.8,1.2-2.5s1.9-1.1,3.1-1.2c2.1-0.1,4.2-0.2,6.3-0.3c1.6-0.1,2.9,0.4,3.8,1.5
			c5,5.6,10,11.1,14.9,16.7c2.5,4.1,5,8.3,7.4,12.4c1.2,0,2.5-0.1,3.7-0.1c2.2-4.3,4.4-8.6,6.7-12.8c4.6-5.9,9.2-11.7,13.9-17.5
			c0.9-1.1,2.1-1.6,3.7-1.7c2.1,0,4.2-0.1,6.3-0.1c1.2,0,2.3,0.3,3.1,1c0.9,0.7,1.3,1.5,1.3,2.4C613.4,216.6,613.7,241.6,614,266.6z
			"/>
		<path class="st1" d="M696.4,249.8c-0.2,5.6-2.8,10.4-7.8,14.2c-5,3.9-10.9,5.8-17.8,5.6c-3,0-6.1-0.1-9.1-0.1
			c-6.9-0.1-12.8-2.1-17.7-6.1s-7.4-8.8-7.4-14.4c0-13.5,0-27,0-40.5c0-5.6,2.5-10.4,7.6-14.4s11.2-5.9,18.4-5.9
			c3.2,0,6.3,0.1,9.5,0.1c7.2,0.1,13.3,2.2,18.2,6.3c5,4.1,7.4,9,7.2,14.6C697.1,222.8,696.8,236.3,696.4,249.8z M687.8,250.5
			c0.3-14.2,0.6-28.3,1-42.5c0.1-3.7-1.5-6.9-4.8-9.6c-3.3-2.7-7.3-4.1-12-4.2c-3.2,0-6.3-0.1-9.5-0.1c-4.7-0.1-8.8,1.2-12.1,3.8
			c-3.4,2.6-5,5.8-5,9.5c0,14.2-0.1,28.3-0.1,42.5c0,3.7,1.6,6.9,4.8,9.5c3.2,2.7,7.1,4,11.7,4c3.1,0,6.1,0.1,9.2,0.1
			c4.6,0.1,8.5-1.2,11.8-3.7C686,257.4,687.7,254.3,687.8,250.5z"/>
		<path class="st1" d="M779.2,252c-0.4,6.2-3.5,11.3-9.1,15.3c-5.7,4-12.2,5.8-19.8,5.4c-1.5-0.1-2.9-0.2-4.4-0.2
			c-7.6-0.4-14-2.9-19.2-7.5s-7.8-10-7.5-16.2c0.7-19,1.4-38,2.1-56.9c0.1-2.3,1.6-3.4,4.6-3.3c3,0.1,4.4,1.3,4.3,3.7
			c-0.8,19.3-1.6,38.6-2.4,57.9c-0.2,4.3,1.6,8,5.2,11.2c3.6,3.2,8,4.9,13.3,5.2c1.5,0.1,2.9,0.1,4.4,0.2c5.2,0.3,9.8-1,13.7-3.8
			s6-6.3,6.2-10.6c1.2-19.3,2.4-38.6,3.5-57.9c0.1-2.3,1.7-3.4,4.6-3.2c3,0.2,4.3,1.4,4.2,3.8C781.7,214.1,780.5,233.1,779.2,252z"
			/>
		<path class="st1" d="M869,278.4c-0.1,0.9-0.6,1.7-1.5,2.3c-0.9,0.6-2,0.8-3.1,0.7c-2-0.2-4-0.4-6.1-0.6c-0.5-0.1-1.2-0.4-2.1-0.9
			c-0.9-0.5-1.4-1-1.6-1.4c-8.7-18.6-17.6-37.2-26.8-55.7c-2.8-7.2-5.7-14.3-8.6-21.4c-1.3-0.1-2.5-0.2-3.8-0.3
			c0.2,7.9,0.4,15.7,0.6,23.6c-1.3,16.3-2.7,32.6-4,48.9c-0.2,2.4-1.7,3.5-4.5,3.2c-2.8-0.2-4.2-1.5-4-3.9
			c1.9-24.9,3.8-49.8,5.8-74.7c0.2-2.3,1.7-3.4,4.7-3.1c2.1,0.2,4.2,0.3,6.3,0.5c0.6,0,1.3,0.3,2.2,0.9c0.9,0.5,1.4,1,1.6,1.4
			c8.9,17.5,17.5,35,25.9,52.6c3.2,8.2,6.3,16.4,9.4,24.6c1.2,0.1,2.4,0.3,3.7,0.4c0-8.1,0-16.1,0.1-24.2c1.7-16.1,3.3-32.1,5-48.2
			c0.2-2.3,1.8-3.3,4.8-3c2.9,0.3,4.3,1.6,4,3.9C874.4,228.7,871.7,253.5,869,278.4z"/>
		<path class="st1" d="M954.6,213.6c-0.3,2-1.7,2.8-4.2,2.4c-7.4-1-14.7-2.1-22.1-3c-3.2,23.9-6.3,47.9-9.5,71.8
			c-0.3,2.3-1.9,3.2-4.7,2.8c-2.8-0.4-4.1-1.7-3.8-3.9c3.1-24,6.1-47.9,9.2-71.9c-7.4-0.9-14.7-1.8-22.1-2.7
			c-2.5-0.3-3.7-1.4-3.4-3.4c0.2-2,1.6-2.8,4.1-2.5c17.7,2.1,35.4,4.4,53.1,6.9C953.7,210.5,954.9,211.7,954.6,213.6z"/>
		<path class="st1" d="M1024.4,301.6c-0.4,2.1-2.1,2.9-5,2.4c-2.1-0.4-3.2-1.4-3.5-3c-1.6-9-3.2-18-4.9-27
			c-12.4-2.2-24.7-4.2-37.1-6.1c-4.5,8-9,16-13.4,24c-0.8,1.5-2.2,2.1-4.2,1.8c-3-0.4-4.3-1.7-4-3.9c0-0.3,0.2-0.7,0.4-1.2
			c13.1-23.3,26.4-46.5,40.1-69.6c0.3-0.5,1-1,2-1.3c1-0.4,1.9-0.5,2.6-0.4c2.5,0.4,5,0.8,7.5,1.2c0.7,0.1,1.5,0.5,2.4,1.2
			c0.8,0.7,1.3,1.3,1.5,1.9c5.5,26.3,10.7,52.5,15.6,78.8C1024.5,300.9,1024.5,301.3,1024.4,301.6z M1010.6,266.9
			c-0.8-2.4-1.5-4.9-2.3-7.3c-1-5.4-2.1-10.9-3.1-16.3c-0.8-6.8-1.5-13.7-2.3-20.5c-1.6-0.3-3.1-0.5-4.7-0.8
			c-2.9,6.2-5.8,12.5-8.7,18.7c-2.8,4.8-5.5,9.6-8.3,14.4c-1.5,2.1-3,4.1-4.6,6.2c0.2,0.7,0.4,1.4,0.6,2.1c3.7,0.3,7.5,0.5,11.2,0.8
			c3.4,0.6,6.8,1.1,10.1,1.7c3.6,0.9,7.2,1.9,10.8,2.8C1009.7,268.1,1010.2,267.5,1010.6,266.9z"/>
		<path class="st1" d="M1050.4,306.4c-0.4,2.2-2.1,3.1-4.9,2.5c-2.8-0.5-4-1.9-3.6-4.2c4.7-24.7,9.5-49.4,14.2-74.1
			c0.4-2.3,2.1-3.1,5-2.6c2.9,0.6,4.1,2,3.7,4.3C1060,257,1055.2,281.7,1050.4,306.4z"/>
		<path class="st1" d="M1140.1,325.4c-0.2,0.9-0.8,1.6-1.8,2.1s-2.1,0.6-3.2,0.3c-2-0.5-4-0.9-6-1.4c-0.5-0.1-1.2-0.5-2-1.2
			s-1.2-1.2-1.4-1.6c-6.3-19.6-12.8-39.2-19.7-58.7c-1.9-7.5-3.8-14.9-5.8-22.4c-1.2-0.3-2.5-0.5-3.7-0.8
			c-0.8,7.8-1.6,15.7-2.4,23.5c-3.4,16-6.8,32-10.2,48c-0.5,2.3-2.1,3.2-4.9,2.6s-4-2-3.5-4.4c5.1-24.5,10.2-48.9,15.3-73.4
			c0.5-2.3,2.2-3.1,5.1-2.5c2.1,0.4,4.1,0.9,6.2,1.3c0.6,0.1,1.2,0.5,2.1,1.1c0.8,0.6,1.3,1.2,1.5,1.6c6.6,18.5,13,37,19.1,55.6
			c2.1,8.5,4.2,17.1,6.3,25.6c1.2,0.3,2.4,0.6,3.6,0.8c1.1-8,2.1-16,3.1-24c3.7-15.7,7.4-31.5,11.1-47.2c0.5-2.3,2.2-3,5.1-2.4
			c2.9,0.7,4.1,2.2,3.5,4.4C1151.8,276.8,1146,301.1,1140.1,325.4z"/>
	</g>
</g>
<g class="st3">
	<path class="st1" d="M315.8,829.1c0,1-0.5,1.8-1.4,2.4c-0.9,0.6-2,1-3.2,1c-1.7,0-3-0.6-3.8-1.8l-25.7-37.6h-14.9V829
		c0,2.3-1.5,3.4-4.5,3.4s-4.5-1.1-4.5-3.4v-74.6c0-0.9,0.4-1.7,1.4-2.4c0.9-0.7,1.9-1,3.1-1h27.8c7.5,0,13.7,2.1,18.6,6.3
		c4.5,4,6.8,8.9,6.8,14.7c0,4.4-1.6,8.4-4.9,12c-3.2,3.6-7.5,6.2-12.8,7.7c-1.2,0.3-2.6,0.5-4.1,0.5c-1.1,0-2.2-0.1-3.2-0.2
		l-1.4,1.8l5.7,4.9l20.3,28.5C315.6,827.8,315.8,828.4,315.8,829.1z M306.7,771.9c0-4.2-1.6-7.7-4.7-10.7s-7-4.4-11.8-4.4h-23.3
		v30.3h21.4c5,0,9.3-1.5,12.9-4.6C304.8,779.5,306.7,775.9,306.7,771.9z"/>
	<path class="st1" d="M390.6,829c0,2-1.3,3-3.8,3h-44.7c-1.2,0-2.2-0.3-3.1-1s-1.4-1.5-1.4-2.4v-74.1c0-0.9,0.4-1.7,1.4-2.4
		c0.9-0.7,1.9-1,3.1-1h44.7c2.6,0,3.8,1,3.8,3s-1.3,3-3.8,3h-40.2v26.4h37c2.6,0,3.8,1,3.8,3s-1.3,3-3.8,3h-37V826h40.2
		C389.3,826,390.6,827,390.6,829z"/>
	<path class="st1" d="M479.9,828.5c0,0.9-0.5,1.7-1.4,2.4s-1.9,1-3.1,1H469c-0.6,0-1.3-0.2-2.3-0.7c-0.9-0.5-1.5-0.9-1.8-1.2
		l-33.1-52.7l-10.5-20.6h-3.8l2.6,23.4V829c0,2.4-1.5,3.6-4.5,3.6s-4.5-1.2-4.5-3.6v-74.6c0-2.3,1.5-3.5,4.5-3.5h6.4
		c0.6,0,1.3,0.2,2.3,0.7c0.9,0.5,1.5,0.9,1.8,1.2l31.3,49.9l12.3,23.4h3.8l-2.6-24v-48.3c0-2.3,1.5-3.5,4.5-3.5s4.5,1.2,4.5,3.5
		L479.9,828.5L479.9,828.5z"/>
	<path class="st1" d="M565.8,811.6c0,5.6-2.6,10.4-7.7,14.4c-5.1,4-11.3,6-18.6,6h-9.6c-7.3,0-13.4-2-18.6-6
		c-5.1-4-7.7-8.8-7.7-14.4v-40.4c0-5.6,2.6-10.4,7.7-14.4s11.3-6,18.6-6h9.6c7.3,0,13.4,2,18.6,6c5.1,4,7.7,8.8,7.7,14.4V811.6z
		 M556.8,812.6v-42.3c0-3.7-1.7-6.9-5.1-9.5c-3.4-2.6-7.5-3.9-12.3-3.9h-9.6c-4.8,0-8.9,1.3-12.3,3.9c-3.4,2.6-5.1,5.8-5.1,9.5v42.3
		c0,3.7,1.7,6.9,5.1,9.5c3.4,2.6,7.5,3.9,12.3,3.9h9.6c4.8,0,8.9-1.3,12.3-3.9C555.1,819.4,556.8,816.3,556.8,812.6z"/>
	<path class="st1" d="M653.7,753.7c0,0.3-0.1,0.7-0.2,1.1l-27.2,74.6c-0.2,0.6-0.8,1.2-1.7,1.7c-1,0.5-1.8,0.8-2.6,0.8h-7.7
		c-0.8,0-1.6-0.3-2.6-0.8s-1.6-1.1-1.7-1.7l-27.2-74.6c-0.1-0.4-0.2-0.8-0.2-1.1c0-2.2,1.6-3.3,4.7-3.3c2.1,0,3.5,0.8,4.1,2.5
		l18.1,51.3l7,23.3h3.6l7-23.4l17.9-51.2c0.6-1.7,2-2.5,4.3-2.5C652.1,750.4,653.7,751.5,653.7,753.7z"/>
	<path class="st1" d="M735.9,829.1c0,2.2-1.6,3.2-4.7,3.2c-2.2,0-3.6-0.8-4.2-2.4l-9.9-25.6h-38.9l-10,25.6c-0.6,1.6-2,2.4-4.1,2.4
		c-3.1,0-4.7-1.1-4.7-3.2c0-0.3,0.1-0.7,0.3-1.2l29.8-74.6c0.2-0.5,0.8-1.1,1.7-1.6s1.8-0.8,2.5-0.8h7.7c0.8,0,1.6,0.3,2.6,0.8
		c0.9,0.5,1.5,1.1,1.8,1.6l29.8,74.6C735.8,828.4,735.9,828.8,735.9,829.1z M715.4,797.5l-3.6-6.8l-6-15.5l-5.8-19.8h-4.8l-5.7,19.8
		l-6,15.5l-3.6,6.8l1,2l11.5-1H703l11.4,1L715.4,797.5z"/>
	<path class="st1" d="M800.9,753.9c0,2-1.3,3-3.8,3h-22.5V829c0,2.3-1.5,3.4-4.5,3.4s-4.5-1.1-4.5-3.4v-72.1H743c-2.6,0-3.8-1-3.8-3
		s1.3-3,3.8-3h54C799.6,750.9,800.9,751.9,800.9,753.9z"/>
	<path class="st1" d="M874.3,811.6c0,5.6-2.6,10.4-7.7,14.4c-5.1,4-11.3,6-18.6,6h-9.6c-7.3,0-13.4-2-18.6-6
		c-5.1-4-7.7-8.8-7.7-14.4v-40.4c0-5.6,2.6-10.4,7.7-14.4c5.1-4,11.3-6,18.6-6h9.6c7.3,0,13.4,2,18.6,6c5.1,4,7.7,8.8,7.7,14.4
		V811.6z M865.4,812.6v-42.3c0-3.7-1.7-6.9-5.1-9.5c-3.4-2.6-7.5-3.9-12.3-3.9h-9.6c-4.8,0-8.9,1.3-12.3,3.9
		c-3.4,2.6-5.1,5.8-5.1,9.5v42.3c0,3.7,1.7,6.9,5.1,9.5c3.4,2.6,7.5,3.9,12.3,3.9h9.6c4.8,0,8.9-1.3,12.3-3.9
		C863.7,819.4,865.4,816.3,865.4,812.6z"/>
	<path class="st1" d="M955.9,829.1c0,1-0.5,1.8-1.4,2.4c-0.9,0.6-2,1-3.2,1c-1.7,0-3-0.6-3.8-1.8l-25.7-37.6h-14.9V829
		c0,2.3-1.5,3.4-4.5,3.4s-4.5-1.1-4.5-3.4v-74.6c0-0.9,0.4-1.7,1.4-2.4c0.9-0.7,1.9-1,3.1-1h27.8c7.5,0,13.7,2.1,18.6,6.3
		c4.5,4,6.8,8.9,6.8,14.7c0,4.4-1.6,8.4-4.9,12c-3.2,3.6-7.5,6.2-12.8,7.7c-1.2,0.3-2.6,0.5-4.1,0.5c-1.1,0-2.2-0.1-3.2-0.2
		l-1.4,1.8l5.7,4.9l20.3,28.5C955.6,827.8,955.9,828.4,955.9,829.1z M946.7,771.9c0-4.2-1.6-7.7-4.7-10.7c-3.1-3-7-4.4-11.8-4.4
		h-23.3v30.3h21.4c5,0,9.3-1.5,12.9-4.6C944.9,779.5,946.7,775.9,946.7,771.9z"/>
	<path class="st1" d="M1030.3,813.5c0,5.1-2.3,9.4-7,13.1c-4.7,3.6-10.3,5.4-16.9,5.4h-30.6c-2.6,0-3.8-1-3.8-3s1.3-3,3.8-3h30.6
		c4.3,0,7.8-1.1,10.6-3.2c2.9-2.3,4.4-5.4,4.4-9.3c0-3.3-1.6-6.2-4.8-8.5L980,778.9c-4.2-3-6.3-6.9-6.3-11.6c0-4.5,2.1-8.4,6.2-11.6
		c4.1-3.2,9.2-4.8,15-4.8h25.7c2.6,0,3.8,1,3.8,3s-1.3,3-3.8,3h-25.7c-3.5,0-6.4,0.9-8.7,2.8c-2.4,2-3.6,4.5-3.6,7.6
		c0,2.7,1.2,4.9,3.6,6.6l36.4,26.1C1027.7,803.6,1030.3,808.1,1030.3,813.5z"/>
</g>
</svg>
