<?xml version="1.0" encoding="utf-8"?>
<!-- Generator: Adobe Illustrator 23.1.1, SVG Export Plug-In . SVG Version: 6.00 Build 0)  -->
<svg version="1.1" id="Layer_1" xmlns="http://www.w3.org/2000/svg" xmlns:xlink="http://www.w3.org/1999/xlink" x="0px" y="0px"
	 viewBox="0 0 50 50" style="enable-background:new 0 0 50 50;" xml:space="preserve">
<g>
	<path d="M15.1,48.5c-0.7,0-1.4-0.3-2-0.8c-1.1-1.1-1.1-2.8,0-3.9l19.1-19.1L13.8,6.2c-1.1-1.1-1.1-2.8,0-3.9c0.5-0.5,1.2-0.8,2-0.8
		s1.4,0.3,2,0.8l20.4,20.4c1.1,1.1,1.1,2.8,0.1,3.9l-0.1,0L38,26.7c0,0.1-0.1,0.2-0.2,0.3L17.1,47.7C16.6,48.2,15.9,48.5,15.1,48.5z
		"/>
	<path d="M15.8,2c0.6,0,1.2,0.2,1.6,0.7L37.8,23c0.8,0.8,0.9,2.2,0.1,3.1l-0.1,0.1l-0.1,0.2c0,0-0.1,0.1-0.1,0.2L16.7,47.3
		c-0.4,0.4-1,0.7-1.6,0.7c-0.6,0-1.2-0.2-1.6-0.7c-0.9-0.9-0.9-2.3,0-3.2l18.7-18.8l0.7-0.7L32.3,24L14.2,5.9
		c-0.9-0.9-0.9-2.3,0-3.2C14.6,2.2,15.2,2,15.8,2 M15.8,1c-0.8,0-1.7,0.3-2.3,1c-1.3,1.3-1.3,3.3,0,4.6l18.1,18.1L12.8,43.4
		c-1.3,1.3-1.3,3.3,0,4.6c0.6,0.6,1.5,0.9,2.3,0.9c0.8,0,1.7-0.3,2.3-0.9l20.7-20.7c0.1-0.1,0.2-0.2,0.3-0.4l0,0
		c1.3-1.3,1.3-3.3,0-4.6L18.1,2C17.5,1.3,16.6,1,15.8,1L15.8,1z"/>
</g>
</svg>
