<?xml version="1.0" encoding="utf-8"?>
<!-- Generator: Adobe Illustrator 23.1.1, SVG Export Plug-In . SVG Version: 6.00 Build 0)  -->
<svg version="1.1" id="Layer_1" xmlns="http://www.w3.org/2000/svg" xmlns:xlink="http://www.w3.org/1999/xlink" x="0px" y="0px"
	 viewBox="0 0 50 50" style="enable-background:new 0 0 50 50;" xml:space="preserve">
<g>
	<path d="M47.2,49.2c-0.5,0-1-0.2-1.4-0.6L1.4,4.2c-0.8-0.8-0.8-2,0-2.8C1.7,1,2.2,0.8,2.8,0.8s1,0.2,1.4,0.6l44.5,44.5
		c0.4,0.4,0.6,0.9,0.6,1.4s-0.2,1-0.6,1.4S47.8,49.2,47.2,49.2z"/>
	<path d="M2.8,1.3c0.4,0,0.8,0.2,1.1,0.4l44.5,44.5c0.6,0.6,0.6,1.5,0,2.1c-0.3,0.3-0.7,0.4-1.1,0.4c-0.4,0-0.8-0.2-1.1-0.4L1.7,3.8
		c-0.6-0.6-0.6-1.5,0-2.1C2,1.4,2.4,1.3,2.8,1.3 M2.8,0.3C2.1,0.3,1.5,0.5,1,1C0,2,0,3.6,1,4.5L45.5,49c0.5,0.5,1.1,0.7,1.8,0.7
		s1.3-0.2,1.8-0.7c1-1,1-2.6,0-3.5L4.5,1C4,0.5,3.4,0.3,2.8,0.3L2.8,0.3z"/>
</g>
<g>
	<path d="M2.8,49.2c-0.5,0-1-0.2-1.4-0.6c-0.8-0.8-0.8-2,0-2.8L45.8,1.4c0.4-0.4,0.9-0.6,1.4-0.6s1,0.2,1.4,0.6
		c0.4,0.4,0.6,0.9,0.6,1.4s-0.2,1-0.6,1.4L4.2,48.6C3.8,49,3.3,49.2,2.8,49.2z"/>
	<path d="M47.2,1.3c0.4,0,0.8,0.2,1.1,0.4c0.6,0.6,0.6,1.5,0,2.1L3.8,48.3c-0.3,0.3-0.7,0.4-1.1,0.4S2,48.6,1.7,48.3
		c-0.6-0.6-0.6-1.5,0-2.1L46.2,1.7C46.5,1.4,46.8,1.3,47.2,1.3 M47.2,0.3c-0.6,0-1.3,0.2-1.8,0.7L1,45.5c-1,1-1,2.6,0,3.5h0
		c0.5,0.5,1.1,0.7,1.8,0.7S4,49.5,4.5,49L49,4.5c1-1,1-2.6,0-3.5l0,0C48.5,0.5,47.9,0.3,47.2,0.3L47.2,0.3z"/>
</g>
</svg>
